<?xml version="1.0" encoding="utf-8"?>
<!-- Generator: Adobe Illustrator 26.5.2, SVG Export Plug-In . SVG Version: 6.00 Build 0)  -->
<svg version="1.1" xmlns="http://www.w3.org/2000/svg" xmlns:xlink="http://www.w3.org/1999/xlink" x="0px" y="0px"
	 viewBox="0 200 1366 568" style="enable-background:new 0 0 1366 768;" xml:space="preserve">
<style type="text/css">
	.st0{display:none;}
	.st1{display:inline;}
	.st2{fill:#9747FF;}
</style>
<g id="Lag_1" class="st0">
	
</g>
<g id="Lag_2">
	<path class="st2" d="M0,491c20.3,4.2,51.8,11.1,90,21c56.1,14.6,67.7,20.5,113,32c32.1,8.2,65.1,14.1,131,26
		c62.3,11.2,94.1,16.9,129,20c59.9,5.3,95,2.8,105,2c8.5-0.7,32.3-2.8,81-13c24.1-5,78.6-17.1,155-42c59.6-19.4,104-37.3,133-49
		c73.2-29.6,66.8-31.3,130-56c52.1-20.3,40.1-12.8,149-52c20.4-7.4,38.6-14,65-20c35-8,64.7-10.3,85-11v419H0L0,491z"/>
</g>
</svg>
