<?xml version="1.0" encoding="UTF-8"?><svg id="Lag_1" xmlns="http://www.w3.org/2000/svg" width="191.03mm" height="136.31mm" xmlns:xlink="http://www.w3.org/1999/xlink" viewBox="0 0 541.51 386.4"><defs><style>.cls-1{letter-spacing:-.07em;}.cls-2{letter-spacing:-.06em;}.cls-3{letter-spacing:-.1em;}.cls-4{letter-spacing:-.2em;}.cls-5{letter-spacing:-.08em;}.cls-6{letter-spacing:-.04em;}.cls-7{letter-spacing:-.07em;}.cls-8{letter-spacing:-.04em;}.cls-9{fill:#eab576;filter:url(#drop-shadow-1);}.cls-10{fill:none;font-family:Dance-Regular, Dance;font-size:85.22px;stroke:#fcfcfc;}.cls-11{letter-spacing:-.05em;}.cls-12{letter-spacing:-.03em;}</style><filter id="drop-shadow-1" filterUnits="userSpaceOnUse"><feOffset dx="11.34" dy="5.67"/><feGaussianBlur result="blur" stdDeviation="2.83"/><feFlood flood-color="#000" flood-opacity=".25"/><feComposite in2="blur" operator="in"/><feComposite in="SourceGraphic"/></filter></defs><ellipse class="cls-9" cx="270.75" cy="187.55" rx="184.53" ry="184.52"/><g><text class="cls-10" transform="translate(.5 140.39) scale(.96 1)"><tspan class="cls-5" x="0" y="0">K</tspan><tspan class="cls-2" x="43.29" y="0">U</tspan><tspan class="cls-12" x="99.96" y="0">N</tspan><tspan x="159.44" y="0">E </tspan><tspan class="cls-7" x="234.26" y="0">F</tspan><tspan class="cls-1" x="280.7" y="0">E</tspan><tspan class="cls-8" x="329.87" y="0">S</tspan><tspan class="cls-11" x="372.14" y="0">T</tspan><tspan class="cls-3" x="408.7" y="0">I</tspan><tspan class="cls-4" x="425.66" y="0">V</tspan><tspan class="cls-6" x="467.5" y="0">A</tspan><tspan x="519.65" y="0">L</tspan></text><text class="cls-10" transform="translate(.5 216.2) scale(.96 1)"><tspan class="cls-5" x="0" y="0">K</tspan><tspan class="cls-2" x="43.29" y="0">U</tspan><tspan class="cls-12" x="99.96" y="0">N</tspan><tspan x="159.44" y="0">E </tspan><tspan class="cls-7" x="234.26" y="0">F</tspan><tspan class="cls-1" x="280.7" y="0">E</tspan><tspan class="cls-8" x="329.87" y="0">S</tspan><tspan class="cls-11" x="372.14" y="0">T</tspan><tspan class="cls-3" x="408.7" y="0">I</tspan><tspan class="cls-4" x="425.66" y="0">V</tspan><tspan class="cls-6" x="467.5" y="0">A</tspan><tspan x="519.65" y="0">L</tspan></text><text class="cls-10" transform="translate(.5 292.01) scale(.96 1)"><tspan class="cls-5" x="0" y="0">K</tspan><tspan class="cls-2" x="43.29" y="0">U</tspan><tspan class="cls-12" x="99.96" y="0">N</tspan><tspan x="159.44" y="0">E </tspan><tspan class="cls-7" x="234.26" y="0">F</tspan><tspan class="cls-1" x="280.7" y="0">E</tspan><tspan class="cls-8" x="329.87" y="0">S</tspan><tspan class="cls-11" x="372.14" y="0">T</tspan><tspan class="cls-3" x="408.7" y="0">I</tspan><tspan class="cls-4" x="425.66" y="0">V</tspan><tspan class="cls-6" x="467.5" y="0">A</tspan><tspan x="519.65" y="0">L</tspan></text></g></svg>